<?xml version="1.0" standalone="no"?>
<!DOCTYPE svg PUBLIC "-//W3C//DTD SVG 20010904//EN"
 "http://www.w3.org/TR/2001/REC-SVG-20010904/DTD/svg10.dtd">
<svg version="1.0" xmlns="http://www.w3.org/2000/svg"
 width="200.000000pt" height="200.000000pt" viewBox="0 0 200.000000 200.000000"
 preserveAspectRatio="xMidYMid meet">

<g transform="translate(0.000000,200.000000) scale(0.100000,-0.100000)"
fill="#000000" stroke="none">
<path d="M628 1989 c-240 -19 -412 -76 -482 -163 -107 -129 -146 -353 -146
-826 0 -491 45 -725 160 -840 115 -115 350 -160 840 -160 504 0 754 51 854
174 107 129 146 353 146 826 0 473 -39 697 -146 826 -73 90 -238 143 -504 164
-155 11 -564 11 -722 -1z m687 -229 c115 -13 213 -36 254 -61 24 -14 31 -26
31 -49 0 -26 -10 -37 -64 -76 l-65 -47 30 -51 c69 -123 72 -143 77 -454 3
-235 1 -297 -13 -365 -22 -112 -65 -196 -133 -266 -168 -172 -506 -213 -757
-92 -81 38 -182 110 -192 137 -5 12 95 133 118 142 5 2 23 -8 41 -22 178 -135
466 -138 598 -6 32 32 94 139 85 148 -2 2 -30 -11 -64 -27 -85 -43 -161 -61
-261 -61 -160 0 -297 57 -411 170 -186 186 -220 472 -84 706 73 126 229 236
380 268 82 17 300 20 430 6z"/>
<path d="M910 1501 c-172 -56 -273 -234 -226 -396 22 -73 53 -122 107 -168
118 -102 300 -102 418 0 145 124 158 329 29 469 -63 69 -126 97 -223 100 -44
2 -91 0 -105 -5z m154 -137 c9 -3 13 -10 10 -15 -3 -5 1 -7 8 -4 19 6 61 -32
52 -47 -4 -7 -4 -10 1 -6 13 12 44 -37 51 -80 7 -43 -11 -116 -27 -107 -5 4
-6 -1 -3 -9 3 -9 1 -16 -4 -16 -6 0 -13 -8 -16 -18 -8 -23 -62 -55 -78 -46 -7
4 -8 3 -4 -4 5 -9 -10 -12 -54 -12 -38 0 -59 4 -55 10 3 6 -1 7 -9 4 -22 -9
-101 73 -116 120 -7 22 -9 55 -6 78 7 43 38 92 51 80 5 -4 5 -1 1 6 -9 15 33
53 52 47 7 -3 10 -1 7 4 -3 5 3 12 12 14 28 7 109 8 127 1z"/>
</g>
</svg>
