<?xml version="1.0" encoding="UTF-8"?>
<svg version="1.1" viewBox="0 0 1500 1500" width="1280" height="1280" xmlns="http://www.w3.org/2000/svg">
<path transform="translate(222,552)" d="m0 0h26l21 3 24 7 18 8 15 9 13 10 3 3 4 1v-2l13-10 20-12 16-7 20-6 14-3 10-1h24l22 3 21 6 18 8 14 8 16 12 12 11 11 12 10 14 8 14 9 20 6 21 2 14 1 14v58l-2 12-7 14-6 7-11 8-12 5-10 2h-11l-11-2-14-7-10-9-9-14-3-11-1-65-4-12-6-11-9-10-9-7-14-5-10-2-12 1-15 5-12 9-8 10-6 12-2 7-1 19-1 184-2 11-6 12-11 12-11 7-15 4h-17l-12-3-13-8-8-8-7-11-3-9-1-5-1-197-3-15-7-14-9-10-11-7-11-4-11-2-12 1-15 5-13 10-6 8-7 14-2 7-1 30-1 175-5 15-9 12-9 8-10 5-12 3h-17l-12-3-10-6-10-9-7-10-4-11-1-5v-206l2-18 5-19 8-20 9-17 12-17 11-12 10-10 13-10 15-9 16-8 19-6 18-4z" fill="#1A9BD6"/>
<path transform="translate(494,559)" d="m0 0 9 1 19 8 16 9 16 12 12 11 11 12 10 14 8 14 9 20 6 21 2 14 1 14v58l-2 12-7 14-6 7-11 8-12 5-10 2h-11l-11-2-14-7-10-9-9-14-3-11-1-65-4-12-6-11-9-10-9-7-14-5-12-3 1-2 11-2h11l27 3 7 1 6-1v-3l-3-3v-10l4 1 1-13 3-10-1-9h2l-1-9-1-11-1-5-5-3-4-11-5-5v-2l-6-2z" fill="#0262AA"/>
<path transform="translate(439,552)" d="m0 0h24l22 3 11 3-1 2 9 5v2l3 1 5 8 1 7 5 2 2 7 1 10v9h-2l2 9-3 11-1 12-2 1-2-1v10l4 3 1 2-11 2-32-4h-11l-11 2-4 2-14 3-9 4-10 7h-7l-4-6-1-8 2-5 1-5-1-2v-18l3-18-1-10 1-9-1-5-1-1v-7l1-3-4-2-2-4 1-4 5-6 4-1 1-3 16-4z" fill="#0C89C9"/>
<path transform="translate(765,634)" d="m0 0h24l9 3 8 7 4 4 5-5 9-6 10-3h23l10 3 6 4 7 7 5 11 1 6 1 69v11l-1 1h-22l-3-1-1-73-3-8-8-7-7-2-11 1-6 3-6 7-2 4-1 15v60l-2 1h-23l-2-1v-71l-3-9-6-7-9-3-10 1-6 3-3 1-6 12-1 73-7 1h-18l-1-1v-109l1-1h24l-1 12 6-4 8-6z" fill="#0978B3"/>
<path transform="translate(555,844)" d="m0 0 15 1 13 4 11 7 7 7 7 11 4 10 1 6v18l-2 9-6 12-12 13-7 5-14 5-7 1h-13l-12-3-13-7-11-11-6-9-4-14-1-13 3-17 6-12 9-10 11-7 9-4z" fill="#063272"/>
<path transform="translate(1349,660)" d="m0 0 26 1v38l1 11 3 6 6 3 7 1 9-3 5-5 3-6 1-7v-38h25l1 3-1 76-2 12-4 8-8 9-12 6-13 3h-16l-17-4-14-7 1-6 6-10 3-3 12 6 14 3 11-1 8-4 6-10 1-8-12 6-10 2h-9l-9-2-10-6-7-8-4-8-1-8z" fill="#0978B3"/>
<path transform="translate(1229,659)" d="m0 0h13l13 4 10 6 7 8 5 12 1 5v19l-3 10-6 9-5 5-5 4-12 5-4 1h-13l-10-3-10-6 1 19v19l-2 1h-10l-12-1-1-3 1-113h21l2 7 4-1 9-5zm-1 20-8 3-7 8-3 9v9l3 8 6 7 6 3 9 1 9-3 5-4 5-10v-14l-5-10-6-5-8-2z" fill="#0977B2"/>
<path transform="translate(750,784)" d="m0 0h17l16 3 13 5 2 4-7 17-5-1-15-5-8-1h-11l-8 3-5 6 1 7 10 5 28 8 14 6 7 8 3 7 1 5v7l-3 10-7 9-8 6-8 3-10 2h-24l-18-4-12-6-1-1 1-8 4-12h3l16 7 12 3h17l8-4 3-4v-6l-5-5-35-10-12-6-8-8-3-7v-16l4-10 8-8 14-7z" fill="#0977B3"/>
<path transform="translate(853,810)" d="m0 0 13 1 9 5 5 3v-8h23l1 1v84h-22l-2-7-6 4-5 3-4 1h-21l-10-3-9-6-7-9-4-8-3-14 1-13 4-11 6-9 9-8 9-4zm3 20-9 3-8 9-2 6v12l4 9 5 5 8 4h10l8-5 6-7 2-6v-13l-6-10-5-4-8-3z" fill="#0978B3"/>
<path transform="translate(494,559)" d="m0 0 9 1 19 8 16 9 16 12 12 11 4 5-5 1 1 7 4 10 2 15v16l-2 13v6l-1 2-1 9-2 1-11-3-28-14-15-4-23-5h-13l-8 3-8-1-8-2 1-2 11-2h11l27 3 7 1 6-1v-3l-3-3v-10l4 1 1-13 3-10-1-9h2l-1-9-1-11-1-5-5-3-4-11-5-5v-2l-6-2z" fill="#0977B2"/>
<path transform="translate(910,660)" d="m0 0 24 1 1 46 2 11 6 5 3 1h11l8-4 4-7 1-5 1-47 5-1h19l1 1v84l-5 1h-18v-10l-14 9-5 2h-16l-12-4-10-9-5-10-1-6z" fill="#0978B3"/>
<path transform="translate(1015,810)" d="m0 0h10l11 2 11 6 8 7 7 14 2 8v6l-16 4-35 7-11 2 3 5 5 4 5 2h16l14-7 5 5 6 5 1 5-7 7-10 4-15 2-17-1-11-4-9-6-7-8-5-10-2-10v-10l3-12 6-10 5-5 7-6 13-5zm-1 19-8 5-6 7-2 5 1 5 10-1 31-6-1-4-6-7-8-4z" fill="#0978B3"/>
<path transform="translate(1106,810)" d="m0 0h13l14 2 11 4 2 4-8 16-13-5-5-1h-13l-8 4-1 5 4 3 13 3 15 3 12 6 4 5 3 7v10l-5 9-7 7-10 4-6 1h-26l-14-3-8-3-1-3 7-17 4 1 10 4 14 2h9l8-3 1-6-8-3-19-3-11-4-9-6-4-8-1-6 2-10 6-9 9-6 9-3z" fill="#0978B3"/>
<path transform="translate(507,741)" d="m0 0 1 2 11-2 14 1 19 5 7 4v2l4 2 6 8 4 6v5l1 2-1 2v7l-2 7 1 7 3 5-1 4-3 6-6 1h-11l-11-2-14-7-10-9-9-14-3-11z" fill="#0977B2"/>
<path transform="translate(1073,641)" d="m0 0h11l15 1v20l18 1 1 1v17h-20l1 44h20l5 11v6l-7 4-4 1h-16l-9-3-8-6-4-5-3-8-1-32v-45z" fill="#0978B3"/>
<path transform="translate(1294,628)" d="m0 0h25l1 1v86l1 9 1 1 13 1 3 1v15l-2 4-2 1h-16l-11-4-8-7-4-8-1-6z" fill="#0978B3"/>
<path transform="translate(476,658)" d="m0 0h13l27 6 12 5 15 8 10 7 11 8 13 13 6 9v2h-2v2l-23-2h-9l-30-3h-7l-1 4h-3l-1-9-3-8-8-16-9-10-9-7-10-4v-2z" fill="#063272"/>
<path transform="translate(1018,628)" d="m0 0h25l1 97 16 1 1 1v17l-4 3h-15l-11-4-8-7-4-8-1-6z" fill="#0977B2"/>
<path transform="translate(927,779)" d="m0 0h24l1 1v82l1 11 2 3 3 1h10l2 6v13l-1 1h-21l-9-3-8-7-4-11z" fill="#0977B2"/>
<path transform="translate(1139,660)" d="m0 0h23l1 1v84l-1 1h-20l-4-1v-84z" fill="#0978B3"/>
<path transform="translate(1146,621)" d="m0 0h10l7 4 3 5v9l-5 7-7 3-9-1-7-4-3-5v-7l4-7z" fill="#0978B3"/>
<path transform="translate(464,655)" d="m0 0h11l24 3 6 2 14 4-3 1-27-6h-13l-8 3-8-1-8-2 1-2z" fill="#0367AC"/>
<path transform="translate(509,772)" d="m0 0 2 3 2-2 4 6v2l-4-1h-4l-1-5z" fill="#0C89C9"/>
</svg>
